<svg xmlns="http://www.w3.org/2000/svg" viewBox="0 0 623.4 90.3">
	<style type="text/css">
	.svg-white{fill:#FFF;}
	</style>
	<path class="svg-white" d="M37 21.3c-4.3-2.3-9.4-3.5-15.2-3.5H0v54.9h21.9c5.8 0 10.8-1.2 15.1-3.6 4.3-2.4 7.6-5.7 9.9-9.8 2.3-4.2 3.5-8.9 3.5-14.2 0-5.3-1.2-10.1-3.5-14.2C44.7 26.8 41.4 23.6 37 21.3zM31.1 55.4c-2.6 2.4-6.1 3.6-10.6 3.6h-5.2V31.2h5.2c4.5 0 8 1.2 10.6 3.7 2.6 2.5 3.9 5.9 3.9 10.3C35 49.6 33.7 53 31.1 55.4z"/><rect class="svg-white" x="72.8" y="17.8" width="15.3" height="54.9"/><polygon class="svg-white" points="147.4 48.9 127.2 17.9 111.9 17.9 111.9 72.7 127.2 72.7 127.2 42.1 147.4 72.7 162.7 72.7 162.7 17.9 147.4 17.9 "/><polygon class="svg-white" points="186.7 72.7 222 72.7 222 60.6 201.9 60.6 201.9 50.6 219.7 50.6 219.7 39.1 201.9 39.1 201.9 30 222 30 222 17.8 186.7 17.8 "/><polygon class="svg-white" points="441.1 55.2 432.6 17.8 415.9 17.8 407.4 55.2 401.4 17.8 384.9 17.8 397.7 72.7 416.7 72.7 424.3 38.8 431.9 72.7 450.8 72.7 463.6 17.8 447.2 17.8 "/><rect class="svg-white" x="485.7" y="17.8" width="15.3" height="54.9"/><path class="svg-white" d="M557.5 42.9c-2.3-1.2-5.1-2.4-8.6-3.6 -3.2-1.1-5.5-2.1-6.9-2.9 -1.5-0.9-2.2-2.1-2.2-3.6 0-1.2 0.3-2.2 1-2.8s1.6-0.9 2.8-0.9c1.4 0 2.5 0.4 3.4 1.2 0.9 0.8 1.4 2.1 1.6 3.8h16.4c-0.4-5.4-2.4-9.6-6.2-12.5 -3.8-3-8.8-4.5-15.1-4.5 -3.9 0-7.3 0.6-10.4 1.9 -3.1 1.3-5.5 3.1-7.2 5.6 -1.8 2.5-2.6 5.4-2.6 8.8 0 3.6 0.8 6.5 2.4 8.8 1.6 2.3 3.6 4 5.8 5.1 2.2 1.1 5.1 2.3 8.6 3.5 3.3 1.1 5.6 2.1 7.1 3 1.5 0.9 2.2 2.2 2.2 3.8 0 1.2-0.4 2.2-1.1 2.9 -0.8 0.7-1.8 1-3.1 1 -1.5 0-2.8-0.5-3.8-1.4 -1-0.9-1.6-2.4-1.8-4.3h-16.2c0.4 5.6 2.6 10 6.7 13 4.1 3.1 9.3 4.6 15.7 4.6 4.2 0 7.8-0.7 10.8-2.2 3-1.4 5.3-3.4 6.8-5.9 1.6-2.5 2.3-5.2 2.3-8.3 0-3.6-0.8-6.6-2.5-8.8C561.7 45.8 559.7 44.1 557.5 42.9z"/><polygon class="svg-white" points="623.4 30 623.4 17.8 588 17.8 588 72.7 623.4 72.7 623.4 60.6 603.3 60.6 603.3 50.6 621.1 50.6 621.1 39.1 603.3 39.1 603.3 30 "/><path class="svg-white" d="M314.2 0h-53.6c-1.2 0-2.2 1-2.2 2.2v31.4c0 17.9 15.9 24.8 21.2 26.6v18.4c0 1.8-0.6 3.2-1.7 4.3 -2.8 2.6-8.4 2.9-10.3 2.8 -1.2-0.1-2.3 0.9-2.4 2.1 -0.1 1.2 0.9 2.3 2.1 2.4 0.1 0 0.4 0 0.9 0 2.4 0 8.8-0.4 12.7-4 2.1-2 3.1-4.5 3.1-7.6V58.6c0-1-0.7-1.9-1.7-2.2 0 0-5-1.3-9.9-4.7 -6.3-4.5-9.5-10.6-9.5-18V4.5H312v29.2c0 7.4-3.2 13.5-9.5 18 -4.9 3.5-9.9 4.7-9.9 4.7 -1 0.2-1.7 1.1-1.7 2.2v20.1c0 3.1 1.1 5.6 3.1 7.6 3.9 3.7 10.3 4 12.7 4 0.5 0 0.8 0 0.9 0 1.2-0.1 2.2-1.1 2.1-2.4 -0.1-1.2-1.1-2.2-2.4-2.1 -1.9 0.1-7.5-0.2-10.3-2.8 -1.2-1.1-1.7-2.5-1.7-4.4V60.2c5.3-1.8 21.2-8.7 21.2-26.6V2.2C316.4 1 315.4 0 314.2 0z"/><path class="svg-white" d="M347.3 0C346 0 345 1 345 2.2v33.5c0 3.3-1.4 7.3-7.9 7.3 -1.2 0-2.2 1-2.2 2.2V88c0 1.2 1 2.2 2.2 2.2s2.2-1 2.2-2.2V47.3c7.5-0.9 10.2-6.4 10.2-11.6V2.2C349.5 1 348.5 0 347.3 0z"/><path class="svg-white" d="M338.5 27.7V2.2c0-1.2-1-2.2-2.2-2.2S334 1 334 2.2v25.5c0 1.2 1 2.2 2.2 2.2S338.5 29 338.5 27.7z"/><path class="svg-white" d="M325.2 0C324 0 323 1 323 2.2v25.5c0 1.2 1 2.2 2.2 2.2s2.2-1 2.2-2.2V2.2C327.4 1 326.4 0 325.2 0z"/></svg>
